<?xml version="1.0" encoding="utf-8"?>
<!-- Generator: Adobe Illustrator 25.3.1, SVG Export Plug-In . SVG Version: 6.00 Build 0)  -->
<svg version="1.1" id="Layer_1" xmlns="http://www.w3.org/2000/svg" xmlns:xlink="http://www.w3.org/1999/xlink" x="0px" y="0px"
	 viewBox="0 0 864 864" style="enable-background:new 0 0 864 864;" xml:space="preserve">
<style type="text/css">
	.st0{fill:url(#favicon_1_);}
</style>
<linearGradient id="favicon_1_" gradientUnits="userSpaceOnUse" x1="253.9786" y1="255.939" x2="609.8836" y2="611.8439" gradientTransform="matrix(1 0 0 -1 0 866)">
	<stop  offset="0" style="stop-color:#C42BD7"/>
	<stop  offset="0.53" style="stop-color:#D565A2"/>
	<stop  offset="1" style="stop-color:#E59C6F"/>
</linearGradient>
<path id="favicon" class="st0" d="M475.2,124.5c6.7,0,12.2,5.5,12.2,12.2c0,6.7-5.5,12.2-12.2,12.2l0,0
	C397.7,149,329.9,201.1,310,276l0.1-0.4c-1.7,6.5-8.4,10.4-14.9,8.6c-6.5-1.7-10.4-8.4-8.6-14.9l-0.4,1.4
	C308.6,184.6,386.3,124.6,475.2,124.5L475.2,124.5z M388.8,715.1c-6.7-0.2-12.4,5.1-12.6,11.9c-0.2,6.7,5.1,12.4,11.9,12.6
	c0.2,0,0.5,0,0.7,0l0,0c88.4,0,165.8-59.4,188.7-144.7l0,0c1.9-6.5-1.8-13.3-8.3-15.2c-6.5-1.9-13.3,1.8-15.2,8.3
	c-0.1,0.2-0.1,0.4-0.2,0.6l0,0C533.9,663.1,466.2,715.1,388.8,715.1L388.8,715.1z M388.8,666.3c-6.7-0.2-12-5.8-11.9-12.6
	c0.2-6.5,5.4-11.7,11.9-11.9l0,0c53.9,0,97.7-43.7,97.6-97.7c0-25.9-10.3-50.7-28.6-69l-69-69l0,0c-47.7-47.7-47.7-125,0-172.6
	c22.9-22.9,53.9-35.7,86.3-35.7l0,0c6.7,0,12.2,5.5,12.2,12.2s-5.5,12.2-12.2,12.2c0,0,0,0,0,0l0,0c-53.9,0-97.7,43.7-97.7,97.6
	c0,25.9,10.3,50.8,28.6,69.1l69,69c47.7,47.7,47.7,125,0,172.6C452.2,653.5,421.2,666.3,388.8,666.3L388.8,666.3z M578.7,354.3
	c9.5,9.5,25,9.5,34.5,0c9.5-9.5,9.5-25,0-34.5l-69-69.1l0,0c-4.8-4.8-4.8-12.5,0-17.3c4.8-4.8,12.5-4.8,17.3,0l0,0l69,69
	c18.5,19.6,17.6,50.5-2,69c-18.8,17.7-48.1,17.7-67,0l-69-69c-9.4-9.7-24.8-10-34.5-0.6c-9.7,9.4-10,24.8-0.6,34.5
	c0.2,0.2,0.4,0.4,0.6,0.6l69.1,69.1c36.7,36.6,57.3,86.3,57.2,138.1l0,0c0,6.7-5.5,12.2-12.2,12.2s-12.2-5.5-12.2-12.2c0,0,0,0,0,0
	v0.7c0.2-45.6-17.8-89.3-50-121.5l-69-69c-19.3-18.8-19.7-49.7-0.9-69s49.7-19.7,69-0.9c0.3,0.3,0.6,0.6,0.9,0.9L578.7,354.3
	 M302.5,630.5l-69-69c-18.5-19.6-17.6-50.5,2-69c18.8-17.7,48.1-17.7,67,0l69,69c9.4,9.7,24.8,10,34.5,0.6c9.7-9.4,10-24.8,0.6-34.5
	c-0.2-0.2-0.4-0.4-0.6-0.6l-69.1-69c-36.7-36.6-57.3-86.3-57.2-138.1l0,0c0-6.7,5.5-12.2,12.2-12.2c6.7,0,12.2,5.5,12.2,12.2l0,0
	c-0.1,45.3,18,88.8,50,120.8l69,69c19.3,18.8,19.7,49.7,0.9,69s-49.7,19.7-69,0.9c-0.3-0.3-0.6-0.6-0.9-0.9l-69-69
	c-9.6-9.5-25.1-9.3-34.5,0.3c-9.4,9.5-9.4,24.8,0,34.3l69,69l0,0c4.7,4.8,4.6,12.6-0.3,17.3C314.7,635.1,307.2,635.1,302.5,630.5
	L302.5,630.5z"/>
</svg>
